{
    "asset" : {
        "generator" : "Khronos glTF Blender I/O v1.6.16",
        "version" : "2.0"
    },
    "extensionsUsed" : [
        "KHR_materials_clearcoat"
    ],
    "scene" : 0,
    "scenes" : [
        {
            "name" : "Scene",
            "nodes" : [
                0
            ]
        }
    ],
    "nodes" : [
        {
            "mesh" : 0,
            "name" : "ColorCalibrator"
        }
    ],
    "materials" : [
        {
            "doubleSided" : true,
            "name" : "MacbethChart",
            "pbrMetallicRoughness" : {
                "baseColorTexture" : {
                    "index" : 0
                },
                "metallicFactor" : 0,
                "roughnessFactor" : 0.949999988079071
            }
        },
        {
            "doubleSided" : true,
            "name" : "BlackBall",
            "pbrMetallicRoughness" : {
                "baseColorFactor" : [
                    0,
                    0,
                    0,
                    1
                ],
                "metallicFactor" : 0,
                "roughnessFactor" : 0
            }
        },
        {
            "doubleSided" : true,
            "name" : "ChromeBall",
            "pbrMetallicRoughness" : {
                "roughnessFactor" : 0.10000000149011612
            }
        },
        {
            "doubleSided" : true,
            "name" : "GreyBall",
            "pbrMetallicRoughness" : {
                "baseColorFactor" : [
                    0.18000000715255737,
                    0.18000000715255737,
                    0.18000000715255737,
                    1
                ],
                "metallicFactor" : 0
            }
        },
        {
            "doubleSided" : true,
            "extensions" : {
                "KHR_materials_clearcoat" : {
                    "clearcoatFactor" : 1,
                    "clearcoatRoughnessFactor" : 0
                }
            },
            "name" : "ClearcoatBall",
            "pbrMetallicRoughness" : {
                "baseColorFactor" : [
                    0.18000000715255737,
                    0.18000000715255737,
                    0.18000000715255737,
                    1
                ],
                "roughnessFactor" : 0.6499999761581421
            }
        }
    ],
    "meshes" : [
        {
            "name" : "ColorCalibrator",
            "primitives" : [
                {
                    "attributes" : {
                        "POSITION" : 0,
                        "NORMAL" : 1,
                        "TEXCOORD_0" : 2
                    },
                    "indices" : 3,
                    "material" : 0
                },
                {
                    "attributes" : {
                        "POSITION" : 4,
                        "NORMAL" : 5,
                        "TEXCOORD_0" : 6
                    },
                    "indices" : 7,
                    "material" : 1
                },
                {
                    "attributes" : {
                        "POSITION" : 8,
                        "NORMAL" : 9,
                        "TEXCOORD_0" : 10
                    },
                    "indices" : 7,
                    "material" : 2
                },
                {
                    "attributes" : {
                        "POSITION" : 11,
                        "NORMAL" : 12,
                        "TEXCOORD_0" : 13
                    },
                    "indices" : 7,
                    "material" : 3
                },
                {
                    "attributes" : {
                        "POSITION" : 14,
                        "NORMAL" : 15,
                        "TEXCOORD_0" : 16
                    },
                    "indices" : 7,
                    "material" : 4
                }
            ]
        }
    ],
    "textures" : [
        {
            "sampler" : 0,
            "source" : 0
        }
    ],
    "images" : [
        {
            "bufferView" : 4,
            "mimeType" : "image/png",
            "name" : "MacbethChartGradient"
        }
    ],
    "accessors" : [
        {
            "bufferView" : 0,
            "componentType" : 5126,
            "count" : 24,
            "max" : [
                1,
                1,
                1
            ],
            "min" : [
                -1,
                -1,
                -1
            ],
            "type" : "VEC3"
        },
        {
            "bufferView" : 1,
            "componentType" : 5126,
            "count" : 24,
            "type" : "VEC3"
        },
        {
            "bufferView" : 2,
            "componentType" : 5126,
            "count" : 24,
            "type" : "VEC2"
        },
        {
            "bufferView" : 3,
            "componentType" : 5123,
            "count" : 36,
            "type" : "SCALAR"
        },
        {
            "bufferView" : 5,
            "componentType" : 5126,
            "count" : 2143,
            "max" : [
                -0.0359436571598053,
                1.9482152462005615,
                0.9640566110610962
            ],
            "min" : [
                -0.9640562534332275,
                1.020103096961975,
                0.03594392538070679
            ],
            "type" : "VEC3"
        },
        {
            "bufferView" : 6,
            "componentType" : 5126,
            "count" : 2143,
            "type" : "VEC3"
        },
        {
            "bufferView" : 7,
            "componentType" : 5126,
            "count" : 2143,
            "type" : "VEC2"
        },
        {
            "bufferView" : 8,
            "componentType" : 5123,
            "count" : 11904,
            "type" : "SCALAR"
        },
        {
            "bufferView" : 9,
            "componentType" : 5126,
            "count" : 2143,
            "max" : [
                0.9640563726425171,
                1.9482152462005615,
                0.9640566110610962
            ],
            "min" : [
                0.03594374656677246,
                1.020103096961975,
                0.03594392538070679
            ],
            "type" : "VEC3"
        },
        {
            "bufferView" : 10,
            "componentType" : 5126,
            "count" : 2143,
            "type" : "VEC3"
        },
        {
            "bufferView" : 11,
            "componentType" : 5126,
            "count" : 2143,
            "type" : "VEC2"
        },
        {
            "bufferView" : 12,
            "componentType" : 5126,
            "count" : 2143,
            "max" : [
                0.9640563726425171,
                1.9482152462005615,
                -0.03594338893890381
            ],
            "min" : [
                0.03594374656677246,
                1.020103096961975,
                -0.9640560150146484
            ],
            "type" : "VEC3"
        },
        {
            "bufferView" : 13,
            "componentType" : 5126,
            "count" : 2143,
            "type" : "VEC3"
        },
        {
            "bufferView" : 14,
            "componentType" : 5126,
            "count" : 2143,
            "type" : "VEC2"
        },
        {
            "bufferView" : 15,
            "componentType" : 5126,
            "count" : 2143,
            "max" : [
                -0.0359436571598053,
                1.9482152462005615,
                -0.03594338893890381
            ],
            "min" : [
                -0.9640562534332275,
                1.020103096961975,
                -0.9640560150146484
            ],
            "type" : "VEC3"
        },
        {
            "bufferView" : 16,
            "componentType" : 5126,
            "count" : 2143,
            "type" : "VEC3"
        },
        {
            "bufferView" : 17,
            "componentType" : 5126,
            "count" : 2143,
            "type" : "VEC2"
        }
    ],
    "bufferViews" : [
        {
            "buffer" : 0,
            "byteLength" : 288,
            "byteOffset" : 0
        },
        {
            "buffer" : 0,
            "byteLength" : 288,
            "byteOffset" : 288
        },
        {
            "buffer" : 0,
            "byteLength" : 192,
            "byteOffset" : 576
        },
        {
            "buffer" : 0,
            "byteLength" : 72,
            "byteOffset" : 768
        },
        {
            "buffer" : 0,
            "byteLength" : 145407,
            "byteOffset" : 840
        },
        {
            "buffer" : 0,
            "byteLength" : 25716,
            "byteOffset" : 146248
        },
        {
            "buffer" : 0,
            "byteLength" : 25716,
            "byteOffset" : 171964
        },
        {
            "buffer" : 0,
            "byteLength" : 17144,
            "byteOffset" : 197680
        },
        {
            "buffer" : 0,
            "byteLength" : 23808,
            "byteOffset" : 214824
        },
        {
            "buffer" : 0,
            "byteLength" : 25716,
            "byteOffset" : 238632
        },
        {
            "buffer" : 0,
            "byteLength" : 25716,
            "byteOffset" : 264348
        },
        {
            "buffer" : 0,
            "byteLength" : 17144,
            "byteOffset" : 290064
        },
        {
            "buffer" : 0,
            "byteLength" : 25716,
            "byteOffset" : 307208
        },
        {
            "buffer" : 0,
            "byteLength" : 25716,
            "byteOffset" : 332924
        },
        {
            "buffer" : 0,
            "byteLength" : 17144,
            "byteOffset" : 358640
        },
        {
            "buffer" : 0,
            "byteLength" : 25716,
            "byteOffset" : 375784
        },
        {
            "buffer" : 0,
            "byteLength" : 25716,
            "byteOffset" : 401500
        },
        {
            "buffer" : 0,
            "byteLength" : 17144,
            "byteOffset" : 427216
        }
    ],
    "samplers" : [
        {
            "magFilter" : 9729,
            "minFilter" : 9987
        }
    ],
    "buffers" : [
        {
            "byteLength" : 444360,
            "uri" : "data:application/octet-stream;base64,"
        }
    ]
}
